TITLE ""
FILE "Step1_Track09.mp3" MP3
  TRACK 01 AUDIO
    TITLE "Step1_Track09_01"
    INDEX 01 00:00:00
  TRACK 02 AUDIO
    TITLE "Step1_Track09_02"
    INDEX 01 00:00:24
  TRACK 03 AUDIO
    TITLE "Step1_Track09_03"
    INDEX 01 00:01:61
  TRACK 04 AUDIO
    TITLE "Step1_Track09_04"
    INDEX 01 00:02:39
  TRACK 05 AUDIO
    TITLE "Step1_Track09_05"
    INDEX 01 00:03:34
  TRACK 06 AUDIO
    TITLE "Step1_Track09_06"
    INDEX 01 00:03:46
  TRACK 07 AUDIO
    TITLE "Step1_Track09_07"
    INDEX 01 00:04:73
  TRACK 08 AUDIO
    TITLE "Step1_Track09_08"
    INDEX 01 00:05:29
  TRACK 09 AUDIO
    TITLE "Step1_Track09_09"
    INDEX 01 00:06:31
  TRACK 10 AUDIO
    TITLE "Step1_Track09_10"
    INDEX 01 00:06:36
  TRACK 11 AUDIO
    TITLE "Step1_Track09_11"
    INDEX 01 00:08:20
  TRACK 12 AUDIO
    TITLE "Step1_Track09_12"
    INDEX 01 00:08:55
  TRACK 13 AUDIO
    TITLE "Step1_Track09_13"
    INDEX 01 00:09:52
  TRACK 14 AUDIO
    TITLE "Step1_Track09_14"
    INDEX 01 00:09:62
  TRACK 15 AUDIO
    TITLE "Step1_Track09_15"
    INDEX 01 00:12:10
  TRACK 16 AUDIO
    TITLE "Step1_Track09_16"
    INDEX 01 00:12:21
  TRACK 17 AUDIO
    TITLE "Step1_Track09_17"
    INDEX 01 00:13:29
  TRACK 18 AUDIO
    TITLE "Step1_Track09_18"
    INDEX 01 00:13:40
  TRACK 19 AUDIO
    TITLE "Step1_Track09_19"
    INDEX 01 00:16:05
  TRACK 20 AUDIO
    TITLE "Step1_Track09_20"
    INDEX 01 00:16:31
  TRACK 21 AUDIO
    TITLE "Step1_Track09_21"
    INDEX 01 00:17:28
  TRACK 22 AUDIO
    TITLE "Step1_Track09_22"
    INDEX 01 00:17:48
  TRACK 23 AUDIO
    TITLE "Step1_Track09_23"
    INDEX 01 00:21:54
  TRACK 24 AUDIO
    TITLE "Step1_Track09_24"
    INDEX 01 00:21:73
  TRACK 25 AUDIO
    TITLE "Step1_Track09_25"
    INDEX 01 00:23:03
  TRACK 26 AUDIO
    TITLE "Step1_Track09_26"
    INDEX 01 00:23:13
  TRACK 27 AUDIO
    TITLE "Step1_Track09_27"
    INDEX 01 00:25:63
  TRACK 28 AUDIO
    TITLE "Step1_Track09_28"
    INDEX 01 00:26:14
  TRACK 29 AUDIO
    TITLE "Step1_Track09_29"
    INDEX 01 00:27:15
  TRACK 30 AUDIO
    TITLE "Step1_Track09_30"
    INDEX 01 00:27:21
  TRACK 31 AUDIO
    TITLE "Step1_Track09_31"
    INDEX 01 00:30:00
  TRACK 32 AUDIO
    TITLE "Step1_Track09_32"
    INDEX 01 00:30:19
  TRACK 33 AUDIO
    TITLE "Step1_Track09_33"
    INDEX 01 00:30:74
  TRACK 34 AUDIO
    TITLE "Step1_Track09_34"
    INDEX 01 00:31:21
  TRACK 35 AUDIO
    TITLE "Step1_Track09_35"
    INDEX 01 00:33:27
  TRACK 36 AUDIO
    TITLE "Step1_Track09_36"
    INDEX 01 00:33:53
  TRACK 37 AUDIO
    TITLE "Step1_Track09_37"
    INDEX 01 00:34:58
  TRACK 38 AUDIO
    TITLE "Step1_Track09_38"
    INDEX 01 00:34:66
  TRACK 39 AUDIO
    TITLE "Step1_Track09_39"
    INDEX 01 00:37:51
  TRACK 40 AUDIO
    TITLE "Step1_Track09_40"
    INDEX 01 00:38:07
  TRACK 41 AUDIO
    TITLE "Step1_Track09_41"
    INDEX 01 00:39:04
  TRACK 42 AUDIO
    TITLE "Step1_Track09_42"
    INDEX 01 00:39:14
  TRACK 43 AUDIO
    TITLE "Step1_Track09_43"
    INDEX 01 00:41:09
